<?xml version="1.0" standalone="no"?>
<!DOCTYPE svg PUBLIC "-//W3C//DTD SVG 20010904//EN"
 "http://www.w3.org/TR/2001/REC-SVG-20010904/DTD/svg10.dtd">
<svg version="1.0" xmlns="http://www.w3.org/2000/svg"
 width="95.000000pt" height="95.000000pt" viewBox="0 0 95.000000 95.000000"
 preserveAspectRatio="xMidYMid meet">
<metadata>
Created by potrace 1.14, written by Peter Selinger 2001-2017
</metadata>
<g transform="translate(0.000000,95.000000) scale(0.100000,-0.100000)"
fill="#000000" stroke="none">
<path d="M400 810 c-84 -20 -175 -93 -203 -162 -22 -53 -20 -202 4 -285 10
-36 16 -70 12 -76 -3 -6 -2 -7 4 -4 5 3 20 -18 32 -48 13 -30 27 -55 33 -55 5
0 7 -4 4 -8 -2 -4 5 -9 16 -9 12 -1 25 -8 29 -15 7 -10 9 -10 9 0 0 6 5 12 11
12 5 0 7 -6 3 -12 -5 -8 -1 -8 10 1 14 12 19 12 25 2 6 -10 10 -9 15 4 4 11
13 15 26 12 11 -3 23 0 27 5 3 7 1 8 -5 4 -17 -10 -15 -1 4 14 8 8 14 9 13 4
-3 -18 1 -37 7 -31 4 3 19 0 34 -8 15 -8 30 -11 34 -8 3 4 6 1 6 -7 0 -9 4 -9
13 -2 15 12 54 6 76 -11 14 -10 14 -10 3 4 -11 15 -8 18 18 28 18 6 29 15 25
21 -4 6 1 7 11 3 10 -4 15 -2 11 4 -3 5 0 21 8 36 8 17 10 29 4 33 -6 3 -5 12
3 22 11 13 11 14 -1 7 -11 -6 -13 -3 -9 13 4 12 2 22 -4 22 -6 0 -7 7 -4 16 3
8 2 13 -3 10 -5 -3 -12 1 -15 10 -4 10 -2 13 7 8 6 -3 -1 6 -18 21 -16 14 -24
24 -17 20 7 -4 27 3 46 14 18 11 37 17 41 13 5 -4 5 -1 1 6 -4 7 -11 10 -16 7
-4 -3 -3 6 3 20 7 14 19 25 27 26 11 0 12 2 2 6 -10 4 -9 10 5 25 11 13 13 18
4 16 -7 -2 -16 3 -19 11 -3 10 0 11 9 5 11 -6 12 -5 2 7 -7 8 -13 34 -14 57
-2 23 -7 42 -12 42 -5 0 -7 9 -4 20 3 11 2 18 -3 15 -10 -6 -32 20 -23 28 3 4
1 7 -6 7 -7 0 -9 5 -5 12 4 6 3 8 -3 5 -13 -8 -36 17 -25 28 4 5 2 5 -5 1 -6
-3 -15 0 -20 8 -4 8 -12 15 -18 16 -5 2 -20 6 -33 11 -28 11 -144 10 -192 -1z
m84 -270 c-6 -6 -10 -2 -11 12 -2 16 1 18 10 9 7 -7 8 -14 1 -21z"/>
</g>
</svg>
